<?xml version="1.0" encoding="UTF-8"?>
<svg width="24px" height="24px" viewBox="0 0 24 24" version="1.1" xmlns="http://www.w3.org/2000/svg" xmlns:xlink="http://www.w3.org/1999/xlink">
    <!-- Generator: Sketch 51.2 (57519) - http://www.bohemiancoding.com/sketch -->
    <title>icon/drink/cocktail</title>
    <desc>Created with Sketch.</desc>
    <defs>
        <path d="M4,5.3220089 L4,5.84103587 C4,6.41717326 4.31693922,6.94873165 4.82724567,7.22832624 L7.08867508,8.4670884 C7.47728188,8.6799172 7.78173907,9.02175803 7.9460856,9.42954291 C8.37892555,10.5039071 9.38071142,11.2192255 10.5412009,11.2977267 L10.5412009,20.0141287 C9.51880673,20.0576934 8.50765934,20.4098957 7.67241738,21.0792484 L7.34174795,21.3440518 C7.21723982,21.4438924 7.17136842,21.6048493 7.22504108,21.7541992 C7.27871375,21.9035491 7.41705611,22 7.57745003,22 L13.9310046,22 C14.0912945,22 14.2295329,21.9036518 14.2833095,21.7545073 C14.3369822,21.6053628 14.2913189,21.4444059 14.1670188,21.3444627 L13.8439426,21.0845897 C13.0072054,20.4116676 11.9928985,20.0575906 10.9672538,20.014103 L10.9672538,11.2976753 C12.1206831,11.2187505 13.1218969,10.5035219 13.5545678,9.42954289 C13.7189144,9.02175799 14.0233716,8.67991715 14.4118743,8.46708838 L15.4761483,7.88410749 C16.0305449,8.26118012 16.675059,8.45722758 17.3276735,8.45712486 C17.7217932,8.45712486 18.1187213,8.38635312 18.4993188,8.24224174 C19.3143945,7.93388652 19.9591947,7.33052922 20.3147241,6.5432065 C20.6702536,5.7559865 20.6939694,4.87909492 20.3816069,4.07410495 C20.0693485,3.26921769 19.4582497,2.63258022 18.6609609,2.28149489 C17.8639841,1.93051229 16.9758886,1.90688747 16.1607089,2.21544813 C15.07203,2.62734168 14.3134354,3.57485093 14.1140612,4.6607708 C13.0993123,4.61181349 11.9418913,4.58573631 10.7502747,4.58573631 C8.9986317,4.58573631 7.35079744,4.6406897 6.11039702,4.74053021 C4.15134445,4.89809751 4,5.08093305 4,5.3220089 Z M4.42605284,5.84103585 L4.42605284,5.67570065 C4.72810464,5.75854158 5.24042643,5.83357606 6.110397,5.90359026 C7.3506934,6.00332808 8.99852766,6.05828146 10.7502747,6.05828146 C11.569277,6.05828146 12.3634063,6.04581425 13.1059563,6.02283139 L12.8414936,6.34596497 C12.1729386,6.36413296 11.4692519,6.37382685 10.7502747,6.37382685 C7.23154214,6.37382685 4.99207331,6.16359167 4.43580442,5.98355514 C4.42994047,5.93656229 4.42605284,5.88909438 4.42605284,5.84103585 Z M13.7843409,21.5792728 L7.72442578,21.5792728 L7.94078074,21.4058872 C8.69674889,20.8002445 9.61036751,20.4789983 10.53535,20.4346247 C10.5068754,20.6346268 10.3342595,20.7894849 10.1239895,20.7894849 C10.0063465,20.7894849 9.91096306,20.883676 9.91096306,20.9998485 C9.91096306,21.116021 10.0063465,21.2102121 10.1239895,21.2102121 C10.3757622,21.2102121 10.5995543,21.0984436 10.7542013,20.9250836 C10.9088223,21.0984436 11.1325884,21.2102121 11.3843611,21.2102121 C11.5020041,21.2102121 11.5973875,21.116021 11.5973875,20.9998485 C11.5973875,20.883676 11.5020041,20.7894849 11.3843611,20.7894849 C11.1741822,20.7894849 11.0015793,20.6346268 10.9731047,20.4346247 C11.9011166,20.4789084 12.8176477,20.8018494 13.5749551,21.4108176 L13.7843409,21.5792728 Z M14.2051929,8.09915751 C13.7309803,8.35903051 13.3593283,8.77626532 13.1586798,9.27402994 C12.7644561,10.2525082 11.8207116,10.8848316 10.7464261,10.8848316 C9.67994172,10.8848316 8.73619725,10.2525082 8.34197354,9.27402994 C8.14132513,8.77626532 7.76967308,8.35903049 7.29535644,8.09915751 L5.03392703,6.86039535 C4.77296187,6.71742668 4.58315721,6.48387482 4.49043922,6.21292128 C4.7731049,6.28572166 5.26290704,6.3609359 6.11913438,6.42980738 C7.35651833,6.52933975 9.00123207,6.58419042 10.7502747,6.58419042 C11.4057496,6.58419042 12.0497046,6.57640964 12.6652501,6.56128462 L12.373964,6.91718479 C11.9293572,6.89942766 11.395881,6.88905329 10.7502747,6.88905329 C6.95574156,6.88905329 6.95574156,7.2412685 6.95574156,7.41054545 C6.95574156,7.46969738 6.95632666,7.55117732 7.11822881,7.63214367 L7.84227683,8.13007522 C8.19957456,8.37577333 8.4758432,8.71576526 8.64975929,9.13156204 L8.77270715,9.36195536 C9.16152197,10.0907296 9.92126074,10.5435044 10.7554755,10.5435044 C11.5954112,10.5435044 12.3575424,10.0863128 12.7445889,9.35014294 L12.8281144,9.19113764 C12.831755,9.18425564 12.8349795,9.17716819 12.837788,9.16987531 C12.998598,8.75798176 13.2764268,8.40545839 13.6414218,8.15041309 L14.3857921,7.63051304 C14.5444307,7.5500731 14.5448078,7.46929935 14.5448078,7.41054545 C14.5448078,7.27601238 14.5426364,7.02612858 12.6380757,6.9291256 L12.9455234,6.55347816 C13.4620188,6.53868697 13.9573469,6.51892686 14.4182193,6.49379981 C14.4769888,6.4906156 14.5220281,6.44100348 14.5186996,6.38307132 C14.5154751,6.32503644 14.4652349,6.27634878 14.4065694,6.28384708 C14.00158,6.30589264 13.5709114,6.32403495 13.1217799,6.33811997 L13.3874128,6.01356119 C14.1239818,5.98749685 14.8037056,5.95074999 15.3901524,5.90359024 C16.2601229,5.83357604 16.7724447,5.75854156 17.0744965,5.67570063 L17.0744965,5.84103583 C17.0744965,5.88769485 17.0705699,5.93373755 17.065031,5.97939508 C16.947674,6.01749009 16.7236868,6.0702094 16.2964508,6.12566351 C16.2380974,6.13316182 16.1970107,6.18606087 16.204708,6.24358217 C16.2116771,6.29658393 16.2575485,6.33510266 16.310181,6.33510266 C16.3147578,6.33510266 16.3194385,6.33479452 16.3241193,6.33417821 C16.6327111,6.29414442 16.8529147,6.25387951 17.0098371,6.21369165 C16.9170281,6.48433705 16.7273794,6.7176321 16.4667263,6.86039535 L14.2051929,8.09915751 Z M10.8559558,8.93948199 C10.8099803,8.90281217 10.7429935,8.91000233 10.7061716,8.95509492 L10.4572073,9.25929012 C10.3983468,9.19129173 10.3580793,9.10936241 10.3433609,9.01877922 C10.3223495,8.88884272 10.3537626,8.75859808 10.4318792,8.65208096 C10.5099958,8.54546114 10.6254545,8.4753057 10.7570358,8.45445423 C10.7836641,8.45024286 10.8100843,8.44818851 10.8362966,8.44818851 C11.0768874,8.44818851 11.2892898,8.62106054 11.3286081,8.86295813 C11.3496195,8.99289463 11.3182065,9.12313927 11.2400898,9.22965639 C11.1619732,9.33627621 11.0465146,9.40643165 10.9149333,9.42728312 C10.8150902,9.44275481 10.7154681,9.42866979 10.6261046,9.38757032 L10.8717663,9.08739391 C10.9087963,9.0421986 10.9017232,8.97594639 10.8559558,8.93948199 Z M11.3409471,8.1793535 C11.147957,8.05439877 10.919198,8.00253973 10.6896329,8.03906831 C10.4457135,8.07768976 10.2315429,8.20772896 10.0867515,8.40535569 C9.94185607,8.60298241 9.88360666,8.84446913 9.92271699,9.08533956 C9.95427308,9.27974356 10.0484213,9.45283386 10.1878688,9.58839409 L10.053154,9.75299744 C10.0161241,9.79819275 10.0231972,9.86444495 10.0689646,9.90090934 C10.0887278,9.91672769 10.1123396,9.92432871 10.1358474,9.92432871 C10.1669484,9.92432871 10.1977374,9.91097555 10.2187488,9.8852964 L10.3555699,9.7181123 C10.5010504,9.80602486 10.6648249,9.8543787 10.8340082,9.8543787 C10.8832081,9.8543787 10.9328242,9.85057818 10.9823362,9.842669 C11.2262556,9.80404755 11.4404262,9.67400835 11.5852176,9.47638162 C11.730113,9.27875489 11.7883624,9.03726818 11.7492521,8.79639775 C11.7192562,8.61159775 11.6339625,8.44491439 11.5059568,8.31237147 L11.8266016,7.92059753 C12.4775908,7.90594758 12.9735039,7.87781608 13.3498107,7.84124895 C12.9422079,8.13910142 12.6293383,8.54027391 12.4446044,9.00758308 L12.3663838,9.1563167 C12.0529812,9.75248383 11.4357454,10.1227772 10.7554755,10.1227772 C10.0798864,10.1227772 9.46452293,9.75607891 9.14966407,9.16576663 L9.03524557,8.95355414 C8.85113583,8.51073005 8.55017619,8.12934332 8.16375376,7.84257143 C8.72492443,7.89640776 9.54600711,7.93193487 10.7502747,7.93193487 C11.0385053,7.93193487 11.3023179,7.9296751 11.5484217,7.9258489 L11.3409471,8.1793535 Z M12.1834053,7.48465549 L12.3009572,7.34101917 C12.7220173,7.35899457 13.0834107,7.38326138 13.3731625,7.41054547 C13.0568864,7.44025623 12.6550435,7.46638476 12.1834053,7.48465549 Z M11.9014157,7.4945548 C11.550567,7.50507041 11.1657698,7.51120773 10.7502747,7.51120773 C9.62855745,7.51120773 8.72756387,7.46693688 8.1273869,7.41054547 C8.72756387,7.35405134 9.62855745,7.30978049 10.7502747,7.30978049 C11.2201966,7.30978049 11.6486679,7.31786941 12.0352333,7.33105567 L11.9014157,7.4945548 Z M16.396476,3.11674776 L17.1386489,5.02940783 L15.2425005,4.19437326 C15.4813361,3.72498408 15.8814758,3.33833315 16.396476,3.11674776 Z M19.4682743,4.30715608 L17.5320145,5.03982072 L18.3761109,3.17050706 C18.8494394,3.40470091 19.2427009,3.79641064 19.4682743,4.30715608 Z M18.2633176,7.34032583 L17.5214698,5.42828206 L19.4144326,6.26194281 C19.1771833,6.72925195 18.7804372,7.11757203 18.2633176,7.34032583 Z M19.5444666,4.50353737 C19.7221924,5.03233525 19.6947189,5.58329424 19.5011827,6.06986276 L17.6082068,5.23620201 L19.5444666,4.50353737 Z M17.4935022,5.94398356 L18.0643595,7.41532178 C17.5343548,7.5887074 16.9587388,7.5691784 16.4369385,7.35780048 L16.6733037,7.22832621 C17.1528602,6.96567989 17.4580325,6.4797405 17.4935022,5.94398356 Z M17.337503,4.95415509 L16.5955902,3.04217553 C17.1311727,2.86691533 17.6890018,2.89398115 18.1815864,3.0848928 L17.337503,4.95415509 Z M15.1556595,4.38641477 L17.077435,5.23273532 C16.8710527,5.32380644 16.1544809,5.42835907 15.0123114,5.50858075 C14.9633454,5.11882262 15.0169661,4.73511194 15.1556595,4.38641477 Z M16.3131975,2.60823642 C17.021968,2.33994067 17.7939808,2.36048398 18.4874609,2.66575771 C19.1807329,2.97103144 19.7121547,3.52467389 19.9838466,4.22468749 C20.2554345,4.9247011 20.2347352,5.68726911 19.9255972,6.37187522 C19.6163553,7.05648133 19.0557047,7.58126042 18.3468301,7.84945347 C17.5357591,8.15613954 16.6423067,8.07774111 15.901317,7.65119761 L16.204708,7.485015 C16.5584432,7.6568342 16.9437604,7.745607 17.3306899,7.745607 C17.6392038,7.745607 17.9483417,7.69044819 18.2419812,7.57930884 C18.8778359,7.33874657 19.3806532,6.86809912 19.657962,6.25405931 C19.9353748,5.64001949 19.9538898,4.95602966 19.7102824,4.32822582 C19.459784,3.68275473 18.9676024,3.19777832 18.3746676,2.93451569 C18.3722622,2.93323174 18.370689,2.93106184 18.3681536,2.9299448 C18.3655662,2.92878924 18.3628357,2.92908454 18.3602093,2.92814727 C17.7656492,2.6685054 17.0714801,2.6310652 16.4180465,2.87838107 C15.3191609,3.29408799 14.6618137,4.38692837 14.7994669,5.52320503 C14.7056438,5.52925248 14.6066198,5.5349404 14.5076348,5.54064117 C14.3644557,4.28315892 15.1037421,3.06592873 16.3131975,2.60823642 Z M14.0679558,5.07975181 C14.0602455,5.23957883 14.0645102,5.40089525 14.081712,5.56318747 C13.970505,5.56859293 13.8598051,5.57402408 13.7431373,5.57894162 L13.8992795,5.38815838 C13.9363095,5.34296307 13.9292363,5.27671087 13.8834689,5.24024648 C13.8375975,5.20347394 13.7705067,5.21076682 13.7336847,5.25585942 L13.4604456,5.5897012 C12.6663293,5.61927074 11.761344,5.63755428 10.7502747,5.63755428 C7.72359363,5.63755428 5.60934801,5.47762454 4.76535564,5.3220089 C5.60945201,5.16639325 7.72369763,5.00646351 10.7502747,5.00646351 C11.9252225,5.00646351 13.0660789,5.03195007 14.0679558,5.07975181 Z" id="path-1"></path>
    </defs>
    <g id="icon/drink/cocktail" stroke="none" stroke-width="1" fill="none" fill-rule="evenodd">
        <rect id="Bounding-Box" x="0" y="0" width="24" height="24"></rect>
        <mask id="mask-2" fill="white">
            <use xlink:href="#path-1"></use>
        </mask>
        <use id="Shape" fill="#000000" fill-rule="nonzero" xlink:href="#path-1"></use>
        <g id="Mixin/Fill/Black" mask="url(#mask-2)" fill="#333333">
            <rect id="Rectangle" x="0" y="0" width="24" height="24"></rect>
        </g>
    </g>
</svg>