<?xml version="1.0" encoding="UTF-8"?>
<svg width="24px" height="24px" viewBox="0 0 24 24" version="1.1" xmlns="http://www.w3.org/2000/svg" xmlns:xlink="http://www.w3.org/1999/xlink">
    <!-- Generator: Sketch 51.2 (57519) - http://www.bohemiancoding.com/sketch -->
    <title>Icon/App/Instagram@2x</title>
    <desc>Created with Sketch.</desc>
    <defs>
        <path d="M12,3.80166667 C14.67,3.80166667 14.9866667,3.81166667 16.0408333,3.86 C17.1791667,3.91166667 18.235,4.14 19.0475,4.9525 C19.86,5.765 20.0883333,6.82083333 20.14,7.95916667 C20.1883333,9.01333333 20.1983333,9.33 20.1983333,12 C20.1983333,14.67 20.1883333,14.9866667 20.14,16.0408333 C20.0883333,17.1791667 19.86,18.235 19.0475,19.0475 C18.235,19.86 17.1791667,20.0883333 16.0408333,20.14 C14.9866667,20.1883333 14.67,20.1983333 12,20.1983333 C9.33,20.1983333 9.01333333,20.1883333 7.95916667,20.14 C6.82083333,20.0883333 5.765,19.86 4.9525,19.0475 C4.14,18.235 3.91166667,17.1791667 3.86,16.0408333 C3.81166667,14.9866667 3.80166667,14.67 3.80166667,12 C3.80166667,9.33 3.81166667,9.01333333 3.86,7.95916667 C3.91166667,6.82083333 4.14,5.765 4.9525,4.9525 C5.765,4.14 6.82083333,3.91166667 7.95916667,3.86 C9.01333333,3.81166667 9.33,3.80166667 12,3.80166667 L12,3.80166667 Z M12,2 C14.7158333,2 15.0566667,2.01166667 16.1233333,2.06 C17.7483333,2.13416667 19.1758333,2.5325 20.3216667,3.67833333 C21.4675,4.82416667 21.8658333,6.25166667 21.94,7.87666667 C21.9883333,8.94333333 22,9.28416667 22,12 C22,14.7158333 21.9883333,15.0566667 21.94,16.1233333 C21.8658333,17.7483333 21.4675,19.1758333 20.3216667,20.3216667 C19.1758333,21.4675 17.7483333,21.8658333 16.1233333,21.94 C15.0566667,21.9883333 14.7158333,22 12,22 C9.28416667,22 8.94333333,21.9883333 7.87666667,21.94 C6.25166667,21.8658333 4.82416667,21.4675 3.67833333,20.3216667 C2.5325,19.1758333 2.13416667,17.7483333 2.06,16.1233333 C2.01166667,15.0566667 2,14.7158333 2,12 C2,9.28416667 2.01166667,8.94333333 2.06,7.87666667 C2.13416667,6.25166667 2.5325,4.82416667 3.67833333,3.67833333 C4.82416667,2.5325 6.25166667,2.13416667 7.87666667,2.06 C8.94333333,2.01166667 9.28416667,2 12,2 Z M12,6.865 C9.16416667,6.865 6.865,9.16416667 6.865,12 C6.865,14.8358333 9.16416667,17.135 12,17.135 C14.8358333,17.135 17.135,14.8358333 17.135,12 C17.135,9.16416667 14.8358333,6.865 12,6.865 Z M12,15.3333333 C10.1591667,15.3333333 8.66666667,13.8408333 8.66666667,12 C8.66666667,10.1591667 10.1591667,8.66666667 12,8.66666667 C13.8408333,8.66666667 15.3333333,10.1591667 15.3333333,12 C15.3333333,13.8408333 13.8408333,15.3333333 12,15.3333333 Z M17.3383333,7.86166667 C18.001075,7.86166667 18.5383333,7.32440837 18.5383333,6.66166667 C18.5383333,5.99892497 18.001075,5.46166667 17.3383333,5.46166667 C16.6755916,5.46166667 16.1383333,5.99892497 16.1383333,6.66166667 C16.1383333,7.32440837 16.6755916,7.86166667 17.3383333,7.86166667 Z" id="path-1"></path>
    </defs>
    <g id="Icon/App/Instagram" stroke="none" stroke-width="1" fill="none" fill-rule="evenodd">
        <rect id="Bounding-Box" x="0" y="0" width="24" height="24"></rect>
        <mask id="mask-2" fill="white">
            <use xlink:href="#path-1"></use>
        </mask>
        <use id="Mask" fill="#000000" xlink:href="#path-1"></use>
        <g id="Mixin/Fill/Black" mask="url(#mask-2)" fill="#333333">
            <rect id="Rectangle" x="0" y="0" width="24" height="24"></rect>
        </g>
    </g>
</svg>